<mxfile host="app.diagrams.net" modified="2023-11-29T16:25:22.212Z" agent="Mozilla/5.0 (X11; Linux x86_64) AppleWebKit/537.36 (KHTML, like Gecko) Chrome/119.0.0.0 Safari/537.36" etag="cP6NABDqKj63to-s3QGH" version="22.1.5" type="device" pages="2">
  <diagram name="monolith" id="bKsECs9rlAw-vW2sO-0l">
    <mxGraphModel dx="1434" dy="761" grid="1" gridSize="10" guides="1" tooltips="1" connect="1" arrows="1" fold="1" page="0" pageScale="1" pageWidth="827" pageHeight="1169" math="0" shadow="0">
      <root>
        <mxCell id="0" />
        <mxCell id="1" parent="0" />
        <mxCell id="cz-D6sSvUmYTQrEX-bfW-1" value="User Interface" style="rounded=0;whiteSpace=wrap;html=1;" vertex="1" parent="1">
          <mxGeometry x="360" y="360" width="120" height="40" as="geometry" />
        </mxCell>
        <mxCell id="cz-D6sSvUmYTQrEX-bfW-2" value="Business Logic" style="rounded=0;whiteSpace=wrap;html=1;" vertex="1" parent="1">
          <mxGeometry x="360" y="420" width="120" height="40" as="geometry" />
        </mxCell>
        <mxCell id="cz-D6sSvUmYTQrEX-bfW-3" value="Data Persitance" style="rounded=0;whiteSpace=wrap;html=1;" vertex="1" parent="1">
          <mxGeometry x="360" y="480" width="120" height="40" as="geometry" />
        </mxCell>
        <mxCell id="cz-D6sSvUmYTQrEX-bfW-4" value="" style="rounded=0;whiteSpace=wrap;html=1;fillColor=none;" vertex="1" parent="1">
          <mxGeometry x="350" y="350" width="140" height="180" as="geometry" />
        </mxCell>
        <mxCell id="cz-D6sSvUmYTQrEX-bfW-6" style="edgeStyle=orthogonalEdgeStyle;rounded=0;orthogonalLoop=1;jettySize=auto;html=1;" edge="1" parent="1" source="cz-D6sSvUmYTQrEX-bfW-5">
          <mxGeometry relative="1" as="geometry">
            <mxPoint x="340" y="440" as="targetPoint" />
          </mxGeometry>
        </mxCell>
        <mxCell id="cz-D6sSvUmYTQrEX-bfW-5" value="" style="shape=umlActor;verticalLabelPosition=bottom;verticalAlign=top;html=1;outlineConnect=0;" vertex="1" parent="1">
          <mxGeometry x="200" y="410" width="30" height="60" as="geometry" />
        </mxCell>
        <mxCell id="cz-D6sSvUmYTQrEX-bfW-7" value="" style="shape=cylinder3;whiteSpace=wrap;html=1;boundedLbl=1;backgroundOutline=1;size=15;" vertex="1" parent="1">
          <mxGeometry x="580" y="400" width="60" height="80" as="geometry" />
        </mxCell>
        <mxCell id="cz-D6sSvUmYTQrEX-bfW-8" style="edgeStyle=orthogonalEdgeStyle;rounded=0;orthogonalLoop=1;jettySize=auto;html=1;entryX=0;entryY=0.5;entryDx=0;entryDy=0;entryPerimeter=0;" edge="1" parent="1" source="cz-D6sSvUmYTQrEX-bfW-4" target="cz-D6sSvUmYTQrEX-bfW-7">
          <mxGeometry relative="1" as="geometry" />
        </mxCell>
      </root>
    </mxGraphModel>
  </diagram>
  <diagram id="arKxpLU4moawguttAtQ5" name="microservices">
    <mxGraphModel dx="1434" dy="761" grid="1" gridSize="10" guides="1" tooltips="1" connect="1" arrows="1" fold="1" page="0" pageScale="1" pageWidth="827" pageHeight="1169" math="0" shadow="0">
      <root>
        <mxCell id="0" />
        <mxCell id="1" parent="0" />
        <mxCell id="Th2-HjO0KGEPWK7-Ac8k-10" style="edgeStyle=orthogonalEdgeStyle;rounded=0;orthogonalLoop=1;jettySize=auto;html=1;" edge="1" parent="1" source="Th2-HjO0KGEPWK7-Ac8k-1" target="Th2-HjO0KGEPWK7-Ac8k-2">
          <mxGeometry relative="1" as="geometry" />
        </mxCell>
        <mxCell id="Th2-HjO0KGEPWK7-Ac8k-1" value="" style="shape=umlActor;verticalLabelPosition=bottom;verticalAlign=top;html=1;outlineConnect=0;" vertex="1" parent="1">
          <mxGeometry x="199" y="150" width="30" height="60" as="geometry" />
        </mxCell>
        <mxCell id="Th2-HjO0KGEPWK7-Ac8k-4" style="edgeStyle=orthogonalEdgeStyle;rounded=0;orthogonalLoop=1;jettySize=auto;html=1;exitX=1;exitY=0.5;exitDx=0;exitDy=0;entryX=0;entryY=0.5;entryDx=0;entryDy=0;" edge="1" parent="1" source="Th2-HjO0KGEPWK7-Ac8k-2" target="Th2-HjO0KGEPWK7-Ac8k-3">
          <mxGeometry relative="1" as="geometry" />
        </mxCell>
        <mxCell id="Th2-HjO0KGEPWK7-Ac8k-6" style="edgeStyle=orthogonalEdgeStyle;rounded=0;orthogonalLoop=1;jettySize=auto;html=1;exitX=1;exitY=0.5;exitDx=0;exitDy=0;" edge="1" parent="1" source="Th2-HjO0KGEPWK7-Ac8k-2" target="Th2-HjO0KGEPWK7-Ac8k-5">
          <mxGeometry relative="1" as="geometry" />
        </mxCell>
        <mxCell id="Th2-HjO0KGEPWK7-Ac8k-9" style="edgeStyle=orthogonalEdgeStyle;rounded=0;orthogonalLoop=1;jettySize=auto;html=1;exitX=1;exitY=0.5;exitDx=0;exitDy=0;entryX=0;entryY=0.5;entryDx=0;entryDy=0;" edge="1" parent="1" source="Th2-HjO0KGEPWK7-Ac8k-2" target="Th2-HjO0KGEPWK7-Ac8k-8">
          <mxGeometry relative="1" as="geometry" />
        </mxCell>
        <mxCell id="Th2-HjO0KGEPWK7-Ac8k-2" value="User Interface" style="rounded=0;whiteSpace=wrap;html=1;" vertex="1" parent="1">
          <mxGeometry x="360" y="160" width="120" height="40" as="geometry" />
        </mxCell>
        <mxCell id="Th2-HjO0KGEPWK7-Ac8k-7" value="" style="edgeStyle=orthogonalEdgeStyle;rounded=0;orthogonalLoop=1;jettySize=auto;html=1;" edge="1" parent="1" source="Th2-HjO0KGEPWK7-Ac8k-3" target="Th2-HjO0KGEPWK7-Ac8k-5">
          <mxGeometry relative="1" as="geometry" />
        </mxCell>
        <mxCell id="Th2-HjO0KGEPWK7-Ac8k-16" value="" style="edgeStyle=orthogonalEdgeStyle;rounded=0;orthogonalLoop=1;jettySize=auto;html=1;" edge="1" parent="1" source="Th2-HjO0KGEPWK7-Ac8k-3" target="Th2-HjO0KGEPWK7-Ac8k-11">
          <mxGeometry relative="1" as="geometry" />
        </mxCell>
        <mxCell id="Th2-HjO0KGEPWK7-Ac8k-3" value="Business Logic" style="rounded=0;whiteSpace=wrap;html=1;" vertex="1" parent="1">
          <mxGeometry x="560" y="40" width="120" height="40" as="geometry" />
        </mxCell>
        <mxCell id="Th2-HjO0KGEPWK7-Ac8k-15" value="" style="edgeStyle=orthogonalEdgeStyle;rounded=0;orthogonalLoop=1;jettySize=auto;html=1;" edge="1" parent="1" source="Th2-HjO0KGEPWK7-Ac8k-5" target="Th2-HjO0KGEPWK7-Ac8k-12">
          <mxGeometry relative="1" as="geometry" />
        </mxCell>
        <mxCell id="Th2-HjO0KGEPWK7-Ac8k-5" value="Business Logic" style="rounded=0;whiteSpace=wrap;html=1;" vertex="1" parent="1">
          <mxGeometry x="560" y="160" width="120" height="40" as="geometry" />
        </mxCell>
        <mxCell id="Th2-HjO0KGEPWK7-Ac8k-14" value="" style="edgeStyle=orthogonalEdgeStyle;rounded=0;orthogonalLoop=1;jettySize=auto;html=1;" edge="1" parent="1" source="Th2-HjO0KGEPWK7-Ac8k-8" target="Th2-HjO0KGEPWK7-Ac8k-13">
          <mxGeometry relative="1" as="geometry" />
        </mxCell>
        <mxCell id="Th2-HjO0KGEPWK7-Ac8k-8" value="Business Logic" style="rounded=0;whiteSpace=wrap;html=1;" vertex="1" parent="1">
          <mxGeometry x="560" y="280" width="120" height="40" as="geometry" />
        </mxCell>
        <mxCell id="Th2-HjO0KGEPWK7-Ac8k-11" value="" style="shape=cylinder3;whiteSpace=wrap;html=1;boundedLbl=1;backgroundOutline=1;size=15;" vertex="1" parent="1">
          <mxGeometry x="740" y="20" width="60" height="80" as="geometry" />
        </mxCell>
        <mxCell id="Th2-HjO0KGEPWK7-Ac8k-12" value="" style="shape=cylinder3;whiteSpace=wrap;html=1;boundedLbl=1;backgroundOutline=1;size=15;" vertex="1" parent="1">
          <mxGeometry x="740" y="140" width="60" height="80" as="geometry" />
        </mxCell>
        <mxCell id="Th2-HjO0KGEPWK7-Ac8k-13" value="" style="shape=cylinder3;whiteSpace=wrap;html=1;boundedLbl=1;backgroundOutline=1;size=15;" vertex="1" parent="1">
          <mxGeometry x="740" y="260" width="60" height="80" as="geometry" />
        </mxCell>
      </root>
    </mxGraphModel>
  </diagram>
</mxfile>
